<?xml version="1.0" encoding="UTF-8" standalone="no"?>
<!DOCTYPE svg PUBLIC "-//W3C//DTD SVG 1.1//EN" "http://www.w3.org/Graphics/SVG/1.1/DTD/svg11.dtd">
<svg width="100%" height="100%" viewBox="0 0 2170 1317" version="1.1" xmlns="http://www.w3.org/2000/svg" xmlns:xlink="http://www.w3.org/1999/xlink" xml:space="preserve" xmlns:serif="http://www.serif.com/" style="fill-rule:evenodd;clip-rule:evenodd;stroke-linecap:round;stroke-linejoin:round;stroke-miterlimit:1.5;">
    <g transform="matrix(1,0,0,1,-128.316939,-1937.014726)">
        <g transform="matrix(0.501824,0,0,0.41704,-137.52257,1744.825445)">
            <g transform="matrix(-1.080529,0.010692,-0.004282,-0.626536,2830.076941,3689.59612)">
                <path d="M1831.783,380.239C1985.125,380.239 2109.433,638.206 2109.433,956.424C2109.433,1090.825 2109.433,1234.637 2109.433,1371.259C2109.433,1719.531 1973.385,2001.861 1805.561,2001.861C1301.241,2001.861 346.265,2001.861 346.265,2001.861C346.265,2001.861 346.265,2001.861 346.265,2001.86C346.265,1106.263 696.119,380.239 1127.686,380.239C1379.121,380.239 1641.567,380.239 1831.783,380.239Z" style="fill:rgb(186,147,92);stroke:rgb(102,45,25);stroke-width:29.37px;"/>
            </g>
            <g transform="matrix(0.661226,0,0,0.755716,400.365405,933.971747)">
                <circle cx="880.908" cy="2676.293" r="470.024" style="fill:rgb(80,144,83);stroke:url(#_Linear1);stroke-width:115.88px;"/>
            </g>
        </g>
        <g transform="matrix(1,0,0,1,7.547699,0)">
            <g transform="matrix(0.407133,0,0,0.396904,197.480594,155.04547)">
                <path d="M2338.688,6571.858L3192.76,6568.258L3347.612,7790.018L2192.89,7790.018L2338.688,6571.858Z" style="fill:rgb(186,147,92);stroke:rgb(102,45,25);stroke-width:33.16px;stroke-linecap:butt;stroke-miterlimit:2;"/>
            </g>
            <g transform="matrix(1,0,0,1,29.645949,-5.647157)">
                <path d="M1158.313,3252.581L1158.313,3179.342C1158.313,3149.847 1182.224,3125.936 1211.719,3125.936L1211.72,3125.936C1239.881,3125.936 1262.71,3148.765 1262.71,3176.926L1262.71,3252.581" style="fill:rgb(118,77,0);stroke:rgb(102,45,25);stroke-width:12.5px;"/>
            </g>
            <g transform="matrix(1,0,0,1,205.470466,-5.647157)">
                <path d="M1158.313,3252.581L1158.313,3177.43C1158.313,3163.773 1163.738,3150.675 1173.395,3141.018C1183.052,3131.361 1196.149,3125.936 1209.806,3125.936L1210.622,3125.936C1239.389,3125.936 1262.71,3149.257 1262.71,3178.025L1262.71,3252.581" style="fill:rgb(118,77,0);stroke:rgb(102,45,25);stroke-width:12.5px;"/>
            </g>
        </g>
        <g transform="matrix(1,0,0,1,545.17012,0)">
            <g transform="matrix(0.407133,0,0,0.396904,197.480594,155.04547)">
                <path d="M2338.688,6571.858L3192.76,6568.258L3342.368,7790.018L2176.283,7790.018L2338.688,6571.858Z" style="fill:rgb(186,147,92);stroke:rgb(102,45,25);stroke-width:33.16px;stroke-linecap:butt;stroke-miterlimit:2;"/>
            </g>
            <g transform="matrix(1,0,0,1,29.645949,-5.647157)">
                <path d="M1158.313,3252.581L1158.313,3179.342C1158.313,3149.847 1182.224,3125.936 1211.719,3125.936L1211.72,3125.936C1239.881,3125.936 1262.71,3148.765 1262.71,3176.926L1262.71,3252.581" style="fill:rgb(118,77,0);stroke:rgb(102,45,25);stroke-width:12.5px;"/>
            </g>
            <g transform="matrix(1,0,0,1,205.470466,-5.647157)">
                <path d="M1158.313,3252.581L1158.313,3177.43C1158.313,3163.773 1163.738,3150.675 1173.395,3141.018C1183.052,3131.361 1196.149,3125.936 1209.806,3125.936L1210.622,3125.936C1239.389,3125.936 1262.71,3149.257 1262.71,3178.025L1262.71,3252.581" style="fill:rgb(118,77,0);stroke:rgb(102,45,25);stroke-width:12.5px;"/>
            </g>
        </g>
        <path d="M1628.688,3246.934L2103.44,3246.934" style="fill:none;stroke:rgb(102,45,25);stroke-width:12.5px;"/>
        <g transform="matrix(0.990256,0,0,1,-514.990699,0)">
            <path d="M1628.688,3246.934L2103.44,3246.934" style="fill:none;stroke:rgb(102,45,25);stroke-width:12.56px;"/>
        </g>
        <g transform="matrix(0.5429,0,0,0.49955,-1148.213487,1121.586819)">
            <path d="M6223.26,3145.177C6173.79,3231.352 6086.934,3283.719 5993.474,3283.719C5512.159,3283.807 3875.348,3283.807 3503.693,3283.807C3453.421,3283.807 3406.064,3258.167 3375.786,3214.554C3273.123,3066.164 3219.452,2903.084 3219.452,2737.484C3219.452,2134.435 3917.643,1644.837 4777.62,1644.837C5637.596,1644.837 6335.788,2134.435 6335.788,2737.484C6335.788,2877.65 6297.337,3016.011 6223.26,3145.177Z" style="fill:rgb(80,144,83);stroke:rgb(20,57,44);stroke-width:23.96px;"/>
        </g>
    </g>
    <defs>
        <linearGradient id="_Linear1" x1="0" y1="0" x2="1" y2="0" gradientUnits="userSpaceOnUse" gradientTransform="matrix(648713234748850831360,0,0,648713234748849520640,283846453928923299840,1848489711970207662080)"><stop offset="0" style="stop-color:white;stop-opacity:1"/><stop offset="1" style="stop-color:rgb(79,116,86);stop-opacity:1"/></linearGradient>
    </defs>
</svg>
