<?xml version="1.0" encoding="UTF-8" standalone="no"?>
<!DOCTYPE svg PUBLIC "-//W3C//DTD SVG 1.1//EN" "http://www.w3.org/Graphics/SVG/1.1/DTD/svg11.dtd">
<svg width="100%" height="100%" viewBox="0 0 1599 1598" version="1.1" xmlns="http://www.w3.org/2000/svg" xmlns:xlink="http://www.w3.org/1999/xlink" xml:space="preserve" xmlns:serif="http://www.serif.com/" style="fill-rule:evenodd;clip-rule:evenodd;stroke-linejoin:round;stroke-miterlimit:2;">
    <g transform="matrix(1,0,0,1,-399.812118,-1685.864251)">
        <g transform="matrix(0.830703,0,0,0.830703,260.071423,301.371569)">
            <path d="M1129.365,2361.302C1276.237,2361.302 1395.479,2480.544 1395.479,2627.416C1395.479,2774.288 1276.237,2893.53 1129.365,2893.53C982.492,2893.53 863.25,2774.288 863.25,2627.416C863.25,2480.544 982.492,2361.302 1129.365,2361.302ZM1129.365,2466.926C1040.788,2466.926 968.874,2538.839 968.874,2627.416C968.874,2715.993 1040.788,2787.906 1129.365,2787.906C1217.941,2787.906 1289.855,2715.993 1289.855,2627.416C1289.855,2538.839 1217.941,2466.926 1129.365,2466.926Z" style="fill:rgb(21,8,0);"/>
        </g>
        <path d="M1819.845,3052.978L1589.152,3283.671L1248.711,2794.117L1402.171,2640.656L1819.845,3052.978Z" style="fill:rgb(188,187,172);"/>
        <g transform="matrix(0,1,-1,0,3683.483026,1285.735632)">
            <path d="M1819.845,3052.978L1589.152,3283.671L1248.711,2794.117L1402.171,2640.656L1819.845,3052.978Z" style="fill:rgb(188,187,172);"/>
        </g>
        <g transform="matrix(-1,0,-0,-1,2396.475242,4969.535159)">
            <path d="M1819.845,3052.978L1589.152,3283.671L1248.711,2794.117L1402.171,2640.656L1819.845,3052.978Z" style="fill:rgb(188,187,172);"/>
        </g>
        <g transform="matrix(-0,-1,1,-0,-1285.288041,3682.210873)">
            <path d="M1819.845,3052.978L1589.152,3283.671L1248.711,2794.117L1402.171,2640.656L1819.845,3052.978Z" style="fill:rgb(188,187,172);"/>
        </g>
        <g transform="matrix(0.707107,0.707107,-0.764163,0.764163,2810.442778,225.103755)">
            <rect x="419.976" y="1753.937" width="74.57" height="1557.896" style="fill:rgb(21,8,0);"/>
        </g>
        <g transform="matrix(-0.707107,0.707107,0.764163,0.764163,-413.967537,225.103755)">
            <rect x="419.976" y="1753.937" width="74.57" height="1557.896" style="fill:rgb(21,8,0);"/>
        </g>
    </g>
</svg>
