<?xml version="1.0" encoding="UTF-8" standalone="no"?>
<!DOCTYPE svg PUBLIC "-//W3C//DTD SVG 1.1//EN" "http://www.w3.org/Graphics/SVG/1.1/DTD/svg11.dtd">
<svg width="100%" height="100%" viewBox="0 0 1125 1111" version="1.1" xmlns="http://www.w3.org/2000/svg" xmlns:xlink="http://www.w3.org/1999/xlink" xml:space="preserve" xmlns:serif="http://www.serif.com/" style="fill-rule:evenodd;clip-rule:evenodd;stroke-linejoin:round;stroke-miterlimit:2;">
    <g transform="matrix(1,0,0,1,-456.142005,-1242.825066)">
        <g transform="matrix(-1,0,0,0.849741,2030.826464,251.484438)">
            <path d="M889.059,2203.861C889.059,2166.839 914.562,2136.826 946.022,2136.826L1084.804,2136.826C1116.264,2136.826 1141.767,2166.839 1141.767,2203.861L1141.767,2398.874C1141.767,2418.592 1148.423,2437.503 1160.271,2451.446C1172.119,2465.389 1188.189,2473.222 1204.944,2473.222L1336.476,2473.222C1357.352,2473.222 1377.373,2463.463 1392.134,2446.091C1406.896,2428.719 1415.189,2405.158 1415.189,2380.591L1415.189,1673.671L615.638,1673.671L615.638,2380.591C615.638,2405.158 623.931,2428.719 638.692,2446.091C653.454,2463.463 673.474,2473.222 694.35,2473.222L825.882,2473.222C842.638,2473.222 858.707,2465.389 870.555,2451.446C882.403,2437.503 889.059,2418.592 889.059,2398.874L889.059,2203.861Z"/>
        </g>
        <g transform="matrix(1,0,0,1.359477,0,-601.646692)">
            <path d="M961.497,1388.885C995.143,1369.925 1041.897,1369.925 1075.543,1388.885C1218.519,1469.457 1580.899,1673.671 1580.899,1673.671L456.142,1673.671C456.142,1673.671 818.522,1469.457 961.497,1388.885Z"/>
        </g>
    </g>
</svg>
